PathFileType	4	(X/Y/Z)	Walk6.trc
DataRate	CameraRate	NumFrames	NumMarkers	Units	OrigDataRate	OrigDataStartFrame	OrigNumFrames
200.000000	200.000000	4	58	mm	200.000000	384	597
Frame#	Times		LBHD		LACR1		RMT5		LElbowM		RTH2		RTB3		LWRU		RToe		RTB2		RMT1		C7		LCAR		RCAL		RCAR		LASI		RFA1		RLFC		RWRU		LLFC		LTH3		LTH4		RElbow		RElbowM		LPSI		LTH2		RPSI		LTB2		RASI		LCAL		LMMAL		LFHD		T10		LMT5		LToe		RBHD		LUA1		LMT1		RTH3		RLMAL		RBack		RMFC		LTB1		LTB3		LTH1		LMFC		RFHD		RTB1		LTB4		RUA1		RTH1		RTH4		RTB4		LLMAL		RWRR		LWRR		RACR1		LElbow		RMMAL
			X1	Y1	Z1	X2	Y2	Z2	X3	Y3	Z3	X4	Y4	Z4	X5	Y5	Z5	X6	Y6	Z6	X7	Y7	Z7	X8	Y8	Z8	X9	Y9	Z9	X10	Y10	Z10	X11	Y11	Z11	X12	Y12	Z12	X13	Y13	Z13	X14	Y14	Z14	X15	Y15	Z15	X16	Y16	Z16	X17	Y17	Z17	X18	Y18	Z18	X19	Y19	Z19	X20	Y20	Z20	X21	Y21	Z21	X22	Y22	Z22	X23	Y23	Z23	X24	Y24	Z24	X25	Y25	Z25	X26	Y26	Z26	X27	Y27	Z27	X28	Y28	Z28	X29	Y29	Z29	X30	Y30	Z30	X31	Y31	Z31	X32	Y32	Z32	X33	Y33	Z33	X34	Y34	Z34	X35	Y35	Z35	X36	Y36	Z36	X37	Y37	Z37	X38	Y38	Z38	X39	Y39	Z39	X40	Y40	Z40	X41	Y41	Z41	X42	Y42	Z42	X43	Y43	Z43	X44	Y44	Z44	X45	Y45	Z45	X46	Y46	Z46	X47	Y47	Z47	X48	Y48	Z48	X49	Y49	Z49	X50	Y50	Z50	X51	Y51	Z51	X52	Y52	Z52	X53	Y53	Z53	X54	Y54	Z54	X55	Y55	Z55	X56	Y56	Z56	X57	Y57	Z57	X58	Y58	Z58

384	1.92	-119.88	1594.8	-23.261	-76.429	1400.8	-134.15	208.77	25.755	144.64	-88.273	1070.6	-283.46	39.946	680.03	130.62	119.53	207	64.379	57.047	829.15	-256.48	299.34	54.253	116.54	98.26	294.1	137.17	252.25	43.735	75.346	-169.51	1454	34.232	127.18	841.95	-232.36	45.914	30.593	47.678	-104.32	742.17	278.54	-61.854	1018.1	-148.48	-183.21	885.73	286.35	29.657	521.97	146.03	-169.9	766.93	250.84	-216.37	493.02	-115.88	-182.63	552.77	-125.64	-161.9	643.97	-142.31	-203.91	1046	290.58	-234.63	1054.9	212.4	-257.1	1010.9	-23.315	-107.67	638.48	-93.764	-256.52	1011.5	45.89	-287.66	282.25	-106.41	-60.903	960.63	159.43	-528.68	89.455	-56.762	-438.13	95.536	-16.355	58.427	1602.4	16.883	-245.63	1196	20.161	-359.57	26.018	-120.58	-269.21	25.194	-59.769	-126.67	1582	112.85	-74.635	1205.8	-228.33	-323.86	27.913	-40.371	13.73	564.62	148.74	92.344	64.099	113.38	-198.31	1332.2	177.61	20.242	483.22	21.457	-238.53	357.68	-32.054	-345.76	206.87	-38.692	-143.34	732.61	-160.43	-248.95	482.16	5.6894	54.853	1597.3	91.59	103.54	392.91	67.594	-292.76	282.69	-33.964	-118.82	1202.7	262.54	-54.576	738.42	184.96	-17.017	651.57	169.12	112.75	295.81	64.033	-456.49	96.129	-101	-91.668	791.43	233.5	97.141	876.61	-199.76	-67.233	1384.6	189.57	-138.06	1045.3	-218.2	125.61	74.391	37.573
385	1.925	-114.51	1595.2	-21.811	-70.816	1401.3	-132.92	209.35	24.796	144.95	-83.95	1071.1	-282.27	45.768	680.74	130.77	121.73	206.71	64.558	60.258	828.98	-255.57	300.26	51.864	116.1	101.66	293.95	137.51	252.87	41.979	75.003	-163.93	1454.3	35.497	130.49	841.46	-231.56	46.182	31.032	47.907	-98.729	741.82	279.36	-55.639	1018.7	-147.45	-177.33	885.56	287.07	35.332	522.6	146.58	-164.25	766.7	251.6	-208.15	492.65	-115.17	-174.46	552.23	-124.76	-154.39	643.59	-141.32	-197.76	1045.8	291.2	-228.45	1054.8	213.05	-251.49	1011.2	-22.846	-100.19	638.43	-92.68	-250.88	1012	46.429	-282.19	283.02	-106.27	-55.192	961.34	160.03	-526.19	94.799	-57.004	-435.65	98.76	-16.659	63.824	1602.9	18.227	-240	1196.3	20.988	-359.1	26.908	-120.29	-269.45	25.038	-59.337	-121.2	1582.3	114.3	-69.663	1206.3	-227.15	-323.77	27.808	-40.397	19.536	565.46	149.48	93.049	64.126	113.4	-192.67	1332.2	178.7	25.185	483.84	22.113	-231.88	357.45	-31.698	-341.61	208.5	-38.685	-136.46	732.38	-159.28	-240.95	481.65	5.9953	60.31	1597.7	92.939	107.7	392.78	67.956	-287.34	283.44	-33.771	-112.93	1202.7	263.4	-48.459	739.39	185.53	-11.07	652.4	169.63	115.88	295.57	64.301	-454	99.714	-101.28	-85.961	791.03	234.31	100.65	876.27	-198.93	-61.647	1384.8	190.71	-133.79	1046.1	-216.92	126.22	74.121	37.568
386	1.93	-109.13	1595.6	-20.377	-65.194	1401.9	-131.69	209.86	24.058	145.24	-79.692	1071.7	-281.06	51.517	681.44	130.97	123.81	206.47	64.697	63.302	828.82	-254.68	301.1	49.688	115.64	104.94	293.82	137.81	253.4	40.426	74.631	-158.35	1454.8	36.739	133.65	840.96	-230.8	46.413	31.408	48.113	-93.108	741.54	280.19	-49.483	1019.3	-146.41	-171.4	885.48	287.8	40.874	523.2	147.12	-158.56	766.56	252.38	-199.6	492.26	-114.49	-165.98	551.7	-123.88	-146.66	643.23	-140.31	-191.58	1045.7	291.82	-222.23	1054.8	213.7	-245.91	1011.6	-22.376	-92.497	638.44	-91.57	-245.27	1012.5	46.959	-276.42	283.86	-106.17	-49.54	962.14	160.69	-523.36	100.44	-57.262	-432.89	102.16	-16.998	69.23	1603.3	19.561	-234.41	1196.6	21.799	-358.53	27.917	-120	-269.75	24.926	-58.88	-115.73	1582.6	115.73	-64.695	1206.8	-225.95	-323.7	27.711	-40.412	25.218	566.29	150.21	93.632	64.205	113.37	-187.03	1332.3	179.77	30.048	484.51	22.723	-224.89	357.23	-31.384	-337.15	210.26	-38.712	-129.43	732.17	-158.08	-232.53	481.08	6.3183	65.773	1598.1	94.277	111.74	392.67	68.289	-281.61	284.26	-33.623	-107.02	1202.7	264.24	-42.411	740.35	186.15	-5.2134	653.21	170.19	118.9	295.37	64.536	-451.23	103.5	-101.58	-80.217	790.71	235.12	104.03	875.93	-198.12	-56.068	1385.1	191.82	-129.6	1047	-215.62	126.71	73.905	37.523
387	1.935	-103.75	1596.1	-18.962	-59.572	1402.5	-130.45	210.31	23.511	145.52	-75.498	1072.4	-279.83	57.172	682.09	131.25	125.78	206.26	64.791	66.184	828.69	-253.8	301.86	47.703	115.17	108.09	293.7	138.07	253.85	39.059	74.232	-152.79	1455.2	37.957	136.64	840.45	-230.06	46.611	31.724	48.295	-87.449	741.35	281.03	-43.399	1020	-145.36	-165.44	885.48	288.54	46.258	523.78	147.63	-152.84	766.49	253.17	-190.72	491.86	-113.85	-157.21	551.17	-123.01	-138.7	642.88	-139.3	-185.37	1045.7	292.45	-216.01	1054.8	214.35	-240.36	1012	-21.897	-84.583	638.48	-90.441	-239.71	1013.1	47.49	-270.35	284.8	-106.12	-43.945	963.02	161.4	-520.18	106.36	-57.541	-429.83	105.73	-17.376	74.64	1603.8	20.884	-228.84	1197	22.595	-357.82	29.047	-119.71	-270.1	24.872	-58.398	-110.27	1583	117.15	-59.733	1207.5	-224.74	-323.64	27.631	-40.411	30.747	567.08	150.92	94.108	64.327	113.3	-181.4	1332.5	180.84	34.812	485.2	23.282	-217.54	357.04	-31.112	-332.38	212.13	-38.775	-122.26	731.98	-156.86	-223.68	480.43	6.669	71.238	1598.5	95.6	115.65	392.57	68.587	-275.54	285.15	-33.521	-101.09	1202.9	265.06	-36.457	741.28	186.82	0.52425	654	170.79	121.81	295.19	64.734	-448.16	107.48	-101.92	-74.436	790.47	235.94	107.28	875.59	-197.33	-50.501	1385.5	192.91	-125.48	1048	-214.3	127.09	73.733	37.442
